<?xml version="1.0" encoding="UTF-8"?>
<svg id="_圖層_1" xmlns="http://www.w3.org/2000/svg" xmlns:xlink="http://www.w3.org/1999/xlink" version="1.1" viewBox="0 0 100 100">
  <!-- Generator: Adobe Illustrator 29.2.1, SVG Export Plug-In . SVG Version: 2.1.0 Build 116)  -->
  <defs>
    <style>
      .st0 {
        fill: #fff;
      }
    </style>
  </defs>
  <path d="M50,0C22.4,0,0,22.4,0,50s22.4,50,50,50,50-22.4,50-50S77.6,0,50,0Z"/>
  <path class="st0" d="M63.4,47.2l-.3-.2h-.2c-.6-7.6-5-12.1-12.3-12.2-4.5,0-8.2,1.9-10.4,5.3l-.4.6,5.1,3.4.4-.6c1.5-2.2,3.7-2.7,5.4-2.7s3.7.6,4.6,1.7c.6.7,1,1.6,1.3,2.5-2.1-.3-4-.3-5.7-.2-7.1.4-11.7,4.6-11.4,10.5.1,2.9,1.6,5.6,4.1,7.2,2.1,1.4,4.7,2,7.7,1.9,3.7-.2,6.7-1.7,8.6-4.3,1.4-1.7,2.3-3.9,2.8-6.5,1.1.8,1.9,1.8,2.4,2.9,1.1,2.4,1.1,6.5-2.2,9.9s-6.5,4.3-12.2,4.4c-6.1,0-10.7-2-13.8-5.8-2.8-3.6-4.3-9-4.3-15.5s1.5-11.9,4.3-15.5c2.9-3.8,7.6-5.7,13.8-5.8,6.1,0,10.8,2,14,5.8,1.6,2,2.7,4.3,3.5,7l.2.7,6-1.6-.2-.7c-1.1-3.7-2.6-6.8-4.6-9.4-4.4-5.4-10.7-8.1-18.8-8.1s-14.3,2.8-18.6,8.2c-3.8,4.8-5.7,11.3-5.7,19.5s1.9,14.7,5.7,19.5c4.2,5.3,10.5,8.1,18.6,8.2,7.1,0,12.2-1.9,16.5-6.1,5.5-5.5,5.4-12.5,3.6-16.8-1.4-3.1-3.9-5.6-7.3-7.3ZM56.7,51.8c-.7,5.7-3.2,6.7-5.9,6.8-1.7.1-3.4-.3-4.3-1.2-.6-.5-.9-1.2-1-2.1-.1-2.2,2-3.7,5.6-3.9h1.6c1.3,0,2.7.1,4.1.4Z"/>
</svg>